<svg width="21" height="20" viewBox="0 0 21 20" fill="none" xmlns="http://www.w3.org/2000/svg">
<mask id="mask0_205_96" style="mask-type:luminance" maskUnits="userSpaceOnUse" x="0" y="0" width="20" height="20">
<path d="M19.2916 0H0.244019V20H19.2916V0Z" fill="white"/>
</mask>
<g mask="url(#mask0_205_96)">
<path d="M9.76785 12.5C11.0828 12.5 12.1488 11.3807 12.1488 10C12.1488 8.61929 11.0828 7.5 9.76785 7.5C8.45289 7.5 7.3869 8.61929 7.3869 10C7.3869 11.3807 8.45289 12.5 9.76785 12.5Z" stroke="#909FB4" stroke-width="1.6" stroke-linecap="round" stroke-linejoin="round"/>
<path d="M15.6408 12.5C15.5352 12.7513 15.5036 13.0302 15.5503 13.3005C15.5971 13.5708 15.7197 13.8203 15.9027 14.0167L15.9503 14.0667C16.0979 14.2214 16.215 14.4053 16.2949 14.6076C16.3748 14.8099 16.4159 15.0268 16.4159 15.2458C16.4159 15.4649 16.3748 15.6817 16.2949 15.8841C16.215 16.0864 16.0979 16.2702 15.9503 16.425C15.803 16.58 15.6278 16.7029 15.4352 16.7868C15.2425 16.8706 15.0359 16.9138 14.8274 16.9138C14.6188 16.9138 14.4122 16.8706 14.2195 16.7868C14.0268 16.7029 13.8517 16.58 13.7043 16.425L13.6567 16.375C13.4696 16.1829 13.2321 16.054 12.9746 16.005C12.7172 15.956 12.4516 15.9891 12.2122 16.1C11.9776 16.2056 11.7774 16.381 11.6363 16.6046C11.4953 16.8282 11.4196 17.0902 11.4186 17.3583V17.5C11.4186 17.942 11.2514 18.3659 10.9537 18.6785C10.656 18.9911 10.2523 19.1667 9.83126 19.1667C9.41033 19.1667 9.0066 18.9911 8.70891 18.6785C8.41124 18.3659 8.24401 17.942 8.24401 17.5V17.425C8.23786 17.1492 8.15283 16.8817 7.99997 16.6572C7.8471 16.4328 7.63348 16.2619 7.38686 16.1667C7.14748 16.0557 6.88195 16.0226 6.62449 16.0717C6.36704 16.1207 6.12947 16.2495 5.94242 16.4417L5.8948 16.4917C5.74738 16.6466 5.57232 16.7696 5.37963 16.8534C5.18693 16.9373 4.98038 16.9805 4.77179 16.9805C4.56319 16.9805 4.35664 16.9373 4.16394 16.8534C3.97125 16.7696 3.79619 16.6466 3.64877 16.4917C3.50119 16.3369 3.38411 16.1531 3.30423 15.9507C3.22435 15.7484 3.18324 15.5315 3.18324 15.3125C3.18324 15.0935 3.22435 14.8766 3.30423 14.6743C3.38411 14.4719 3.50119 14.2881 3.64877 14.1333L3.69639 14.0833C3.87935 13.8869 4.00209 13.6375 4.04877 13.3672C4.09546 13.0968 4.06394 12.818 3.95829 12.5667C3.85768 12.3202 3.69064 12.11 3.47771 11.9619C3.26478 11.8139 3.01527 11.7344 2.75988 11.7333H2.62496C2.20398 11.7333 1.80025 11.5577 1.50257 11.2452C1.20489 10.9326 1.03766 10.5087 1.03766 10.0667C1.03766 9.62463 1.20489 9.20071 1.50257 8.88815C1.80025 8.57559 2.20398 8.39999 2.62496 8.39999H2.69639C2.95908 8.39354 3.21386 8.30426 3.42758 8.14375C3.6413 7.98325 3.8041 7.75894 3.8948 7.49999C4.00045 7.24865 4.03196 6.96983 3.98528 6.6995C3.9386 6.42917 3.81587 6.17973 3.63289 5.98333L3.58527 5.93333C3.43769 5.77854 3.32062 5.59473 3.24074 5.39239C3.16086 5.19006 3.11974 4.97319 3.11974 4.75416C3.11974 4.53514 3.16086 4.31826 3.24074 4.11593C3.32062 3.9136 3.43769 3.72978 3.58527 3.57499C3.73269 3.42003 3.90776 3.2971 4.10046 3.21323C4.29315 3.12935 4.49969 3.08618 4.70829 3.08618C4.91689 3.08618 5.12344 3.12935 5.31613 3.21323C5.50883 3.2971 5.68389 3.42003 5.83131 3.57499L5.87893 3.62499C6.06598 3.81711 6.30354 3.94598 6.561 3.995C6.81846 4.04401 7.084 4.01092 7.32337 3.89999H7.38686C7.6216 3.79436 7.8218 3.61896 7.96281 3.39538C8.10383 3.17181 8.17949 2.90982 8.18051 2.64166V2.49999C8.18051 2.05797 8.34775 1.63404 8.64543 1.32148C8.9431 1.00892 9.34684 0.833328 9.76784 0.833328C10.1888 0.833328 10.5925 1.00892 10.8902 1.32148C11.1879 1.63404 11.3551 2.05797 11.3551 2.49999V2.57499C11.3561 2.84315 11.4318 3.10514 11.5728 3.32872C11.7138 3.55229 11.914 3.72769 12.1488 3.83333C12.3881 3.94426 12.6536 3.97735 12.9112 3.92833C13.1686 3.87932 13.4061 3.75044 13.5932 3.55833L13.6408 3.50833C13.7882 3.35337 13.9633 3.23044 14.156 3.14656C14.3487 3.06269 14.5553 3.01952 14.7638 3.01952C14.9724 3.01952 15.179 3.06269 15.3716 3.14656C15.5644 3.23044 15.7395 3.35337 15.8869 3.50833C16.0344 3.66312 16.1515 3.84693 16.2314 4.04926C16.3113 4.25159 16.3524 4.46847 16.3524 4.68749C16.3524 4.90652 16.3113 5.1234 16.2314 5.32573C16.1515 5.52806 16.0344 5.71187 15.8869 5.86666L15.8393 5.91666C15.6563 6.11306 15.5335 6.36251 15.4869 6.63284C15.4402 6.90317 15.4716 7.18198 15.5774 7.43333V7.49999C15.6779 7.74647 15.845 7.95668 16.0579 8.10474C16.2709 8.2528 16.5204 8.33226 16.7757 8.33333H16.9107C17.3316 8.33333 17.7354 8.50892 18.0331 8.82148C18.3307 9.13404 18.4979 9.55797 18.4979 9.99999C18.4979 10.442 18.3307 10.8659 18.0331 11.1785C17.7354 11.4911 17.3316 11.6667 16.9107 11.6667H16.8393C16.5838 11.6677 16.3343 11.7472 16.1215 11.8952C15.9085 12.0433 15.7415 12.2535 15.6408 12.5Z" stroke="#909FB4" stroke-width="1.6" stroke-linecap="round" stroke-linejoin="round"/>
</g>
</svg>
