<svg width="21" height="20" viewBox="0 0 21 20" fill="none" xmlns="http://www.w3.org/2000/svg">
<g clip-path="url(#clip0_205_103)">
<path d="M17.7417 3.84166C17.316 3.41583 16.8107 3.07803 16.2545 2.84757C15.6982 2.6171 15.1021 2.49847 14.5 2.49847C13.8979 2.49847 13.3018 2.6171 12.7455 2.84757C12.1893 3.07803 11.684 3.41583 11.2583 3.84166L10.375 4.725L9.49166 3.84166C8.63192 2.98192 7.46586 2.49892 6.25 2.49892C5.03414 2.49892 3.86807 2.98192 3.00833 3.84166C2.14859 4.70141 1.66559 5.86747 1.66559 7.08333C1.66559 8.29919 2.14859 9.46525 3.00833 10.325L3.89166 11.2083L10.375 17.6917L16.8583 11.2083L17.7417 10.325C18.1675 9.89937 18.5053 9.39401 18.7358 8.83779C18.9662 8.28158 19.0849 7.6854 19.0849 7.08333C19.0849 6.48126 18.9662 5.88508 18.7358 5.32887C18.5053 4.77265 18.1675 4.26729 17.7417 3.84166V3.84166Z" stroke="#909FB4" stroke-width="1.6" stroke-linecap="round" stroke-linejoin="round"/>
</g>
<defs>
<clipPath id="clip0_205_103">
<rect width="20" height="20" fill="white" transform="translate(0.375)"/>
</clipPath>
</defs>
</svg>
